<svg width="100" height="100" viewBox="0 0 100 100" fill="none" xmlns="http://www.w3.org/2000/svg">
<path d="M50 6.54004C46.0532 6.54091 42.5823 8.96637 41.214 12.5032H35.0403C34.1464 12.5032 33.3002 12.8926 32.7454 13.4706C32.1905 14.0485 31.8915 14.7719 31.778 15.5122L24.8688 60.5317C24.7121 61.5535 25.1711 62.5172 25.8026 63.1044C26.4342 63.6915 27.2495 64.026 28.1433 64.026H71.8567C72.7506 64.026 73.5689 63.6915 74.2005 63.1044C74.832 62.5172 75.2909 61.5535 75.1343 60.5317L68.2251 15.5122C68.1116 14.7719 67.8095 14.0486 67.2547 13.4706C66.6998 12.8926 65.8536 12.5032 64.9597 12.5032H58.7891C57.4229 8.96198 53.9512 6.53916 50 6.54004ZM50 8.10864C53.0972 8.10796 55.8019 9.87618 57.0709 12.5032H42.9199C44.1911 9.87642 46.9029 8.10933 50 8.10864ZM35.0403 15.6282H64.9597C65.0219 15.6282 64.9626 15.6055 64.9964 15.6404C65.03 15.6753 65.1053 15.8005 65.1337 15.9852L72.0184 60.843C71.97 60.8696 71.9076 60.901 71.8598 60.901H28.1433C28.0977 60.901 28.0304 60.869 27.9816 60.843L34.8694 15.9852C34.8977 15.8005 34.9732 15.6753 35.0067 15.6404C35.0403 15.6054 34.9781 15.6282 35.0403 15.6282ZM41.9373 18.5243C40.0374 18.5243 38.4674 20.0531 38.4674 21.9392C38.4674 23.8253 40.0374 25.3511 41.9373 25.3511C42.1196 25.3511 42.2962 25.3263 42.4713 25.2992C44.0958 27.7235 46.8905 29.2841 50 29.2848C53.1071 29.2855 55.9004 27.7268 57.5257 25.3053C57.6803 25.3263 57.8325 25.3511 57.9926 25.3511C59.8924 25.3511 61.4655 23.8253 61.4655 21.9392C61.4655 20.0531 59.8924 18.5243 57.9926 18.5243C56.0927 18.5243 54.5227 20.0531 54.5227 21.9392C54.5227 23.0972 55.1179 24.1143 56.015 24.7316C54.6528 26.5547 52.4591 27.7289 50 27.7284C47.526 27.7279 45.3206 26.54 43.9606 24.698C44.8326 24.0778 45.4102 23.0778 45.4102 21.9392C45.4102 20.0531 43.8371 18.5243 41.9373 18.5243ZM41.9373 20.0929C43.011 20.0929 43.8416 20.9162 43.8416 21.9392C43.8416 22.5076 43.5697 22.9989 43.158 23.34C42.9688 22.908 42.8129 22.4587 42.7124 21.985C42.6765 21.7884 42.5667 21.6131 42.4055 21.495C42.2443 21.377 42.044 21.3251 41.8457 21.3502C41.7372 21.3647 41.6329 21.4018 41.5396 21.4592C41.4463 21.5166 41.3662 21.5929 41.3043 21.6833C41.2424 21.7736 41.2003 21.876 41.1805 21.9837C41.1607 22.0914 41.1638 22.202 41.1896 22.3085C41.2944 22.8029 41.4449 23.2768 41.629 23.7336C40.7142 23.586 40.0238 22.8571 40.0238 21.9392C40.0238 20.9162 40.8636 20.0929 41.9373 20.0929ZM57.9926 20.0929C59.0663 20.0929 59.9091 20.9162 59.9091 21.9392C59.9091 22.8318 59.2536 23.5451 58.3771 23.7214C58.559 23.2683 58.7094 22.7984 58.8135 22.3085C58.8451 22.2049 58.8548 22.0959 58.842 21.9883C58.8292 21.8808 58.7942 21.7771 58.7391 21.6838C58.6841 21.5905 58.6103 21.5097 58.5224 21.4464C58.4345 21.3832 58.3344 21.3389 58.2285 21.3164C58.1225 21.2939 58.0131 21.2936 57.907 21.3157C57.801 21.3377 57.7007 21.3816 57.6125 21.4445C57.5244 21.5073 57.4502 21.5878 57.3948 21.6809C57.3394 21.7739 57.3039 21.8775 57.2907 21.985C57.1873 22.4716 57.0205 22.931 56.8237 23.3735C56.3798 23.033 56.0791 22.5301 56.0791 21.9392C56.0791 20.9162 56.9189 20.0929 57.9926 20.0929ZM19.2475 68.2985C19.1924 68.2986 19.1374 68.3016 19.0827 68.3076C18.7939 68.3356 18.5186 68.4442 18.2878 68.621C18.0571 68.7979 17.88 69.036 17.7765 69.3086L15.1886 76.1537L7.92543 76.5016C7.60761 76.5151 7.30151 76.6261 7.04825 76.8196C6.79498 77.0132 6.60669 77.2801 6.50868 77.5844C6.41066 77.8888 6.40761 78.216 6.49994 78.5222C6.59227 78.8283 6.77555 79.0987 7.02516 79.297L12.6984 83.8838L10.7819 90.9395C10.7012 91.2456 10.7146 91.5691 10.8204 91.8674C10.9262 92.1657 11.1193 92.4247 11.3744 92.6104C11.6295 92.7961 11.9345 92.8997 12.2493 92.9076C12.5641 92.9155 12.8739 92.8272 13.1378 92.6545L19.2352 88.6445L25.3113 92.6545C25.5752 92.8283 25.8854 92.9174 26.2008 92.9101C26.5162 92.9027 26.822 92.7993 27.0776 92.6134C27.3333 92.4275 27.5268 92.168 27.6327 91.8691C27.7385 91.5702 27.7516 91.246 27.6703 90.9395L25.7538 83.8838L31.427 79.297C31.6766 79.0987 31.8599 78.8283 31.9522 78.5222C32.0446 78.216 32.0415 77.8888 31.9435 77.5844C31.8455 77.2801 31.6572 77.0132 31.4039 76.8196C31.1507 76.6261 30.8446 76.5151 30.5267 76.5016L23.2605 76.1537L20.6909 69.3086C20.5794 69.0136 20.382 68.7594 20.1244 68.5792C19.8669 68.3989 19.5612 68.3011 19.2475 68.2985ZM50.0214 68.2985C49.9653 68.2985 49.9093 68.3015 49.8535 68.3076C49.5653 68.3362 49.2907 68.445 49.0605 68.6218C48.8303 68.7986 48.6537 69.0364 48.5504 69.3086L45.9625 76.1537L38.6963 76.5016C38.3785 76.5151 38.0724 76.6261 37.8191 76.8196C37.5659 77.0132 37.3776 77.2801 37.2796 77.5844C37.1815 77.8888 37.1785 78.216 37.2708 78.5222C37.3631 78.8283 37.5464 79.0987 37.796 79.297L43.4723 83.8838L41.5527 90.9395C41.4714 91.246 41.4846 91.5702 41.5904 91.8691C41.6962 92.168 41.8898 92.4275 42.1454 92.6134C42.4011 92.7993 42.7068 92.9027 43.0222 92.9101C43.3376 92.9174 43.6478 92.8283 43.9118 92.6545L50.0092 88.6445L56.0852 92.6545C56.3492 92.8272 56.659 92.9155 56.9737 92.9076C57.2885 92.8997 57.5936 92.7961 57.8486 92.6104C58.1037 92.4247 58.2969 92.1657 58.4027 91.8674C58.5084 91.5691 58.5219 91.2456 58.4412 90.9395L56.5247 83.8838L62.2009 79.297C62.4507 79.0985 62.634 78.8279 62.7263 78.5214C62.8185 78.215 62.8152 77.8876 62.7168 77.5831C62.6184 77.2786 62.4297 77.0117 62.1759 76.8184C61.9222 76.625 61.6157 76.5145 61.2976 76.5016L54.0344 76.1537L51.4649 69.3086C51.3534 69.0136 51.1559 68.7594 50.8983 68.5792C50.6408 68.3989 50.3351 68.3011 50.0214 68.2985ZM80.7923 68.2985C80.7372 68.2986 80.6822 68.3016 80.6275 68.3076C80.3392 68.3362 80.0646 68.445 79.8344 68.6218C79.6042 68.7986 79.4276 69.0364 79.3244 69.3086L76.7365 76.1537L69.4702 76.5016C69.1524 76.5151 68.8463 76.6261 68.593 76.8196C68.3398 77.0132 68.1515 77.2801 68.0535 77.5844C67.9555 77.8888 67.9524 78.216 68.0447 78.5222C68.1371 78.8283 68.3204 79.0987 68.57 79.297L74.2432 83.8838L72.3267 90.9395C72.2454 91.246 72.2585 91.5702 72.3643 91.8691C72.4701 92.168 72.6637 92.4275 72.9193 92.6134C73.175 92.7993 73.4808 92.9027 73.7962 92.9101C74.1116 92.9174 74.4217 92.8283 74.6857 92.6545L80.78 88.6445L86.8591 92.6545C87.1231 92.8272 87.4329 92.9155 87.7477 92.9076C88.0625 92.8997 88.3675 92.7961 88.6226 92.6104C88.8776 92.4247 89.0708 92.1657 89.1766 91.8674C89.2823 91.5691 89.2958 91.2456 89.2151 90.9395L87.2986 83.8838L92.9718 79.297C93.2214 79.0987 93.4047 78.8283 93.497 78.5222C93.5894 78.216 93.5863 77.8888 93.4883 77.5844C93.3903 77.2801 93.202 77.0132 92.9487 76.8196C92.6955 76.6261 92.3894 76.5151 92.0715 76.5016L84.8053 76.1537L82.2388 69.3086C82.1271 69.0132 81.9292 68.7586 81.671 68.5783C81.4129 68.398 81.1065 68.3005 80.7923 68.2985ZM19.2352 74.283L20.7123 78.2167C20.8177 78.504 21.0046 78.754 21.2497 78.9357C21.4949 79.1173 21.7876 79.2228 22.0917 79.239L26.2695 79.4496L23.0103 82.0711C22.7749 82.264 22.6007 82.5218 22.509 82.813C22.4174 83.1041 22.4124 83.4159 22.4945 83.7098L23.5871 87.7778L20.0775 85.4646C19.824 85.2978 19.5276 85.209 19.2246 85.209C18.9216 85.209 18.6252 85.2978 18.3716 85.4646L14.8651 87.7778L15.976 83.7098C16.0557 83.4138 16.0474 83.1007 15.9519 82.8094C15.8564 82.5181 15.678 82.2614 15.4389 82.0711L12.1796 79.4496L16.3605 79.239C16.6646 79.2228 16.9573 79.1173 17.2025 78.9357C17.4476 78.754 17.6344 78.504 17.7399 78.2167L19.2352 74.283ZM50.0092 74.283L51.4832 78.2167C51.5888 78.5045 51.7761 78.7547 52.0219 78.9365C52.2676 79.1182 52.561 79.2234 52.8656 79.239L57.0435 79.4496L53.7842 82.0711C53.5483 82.2636 53.3735 82.5213 53.2813 82.8125C53.1891 83.1036 53.1836 83.4156 53.2654 83.7098L54.3579 87.7778L50.8515 85.4646C50.5979 85.2978 50.3015 85.209 49.9985 85.209C49.6955 85.209 49.3991 85.2978 49.1455 85.4646L45.636 87.7778L46.7499 83.7098C46.8297 83.4138 46.8213 83.1007 46.7258 82.8094C46.6303 82.5181 46.452 82.2614 46.2128 82.0711L42.9535 79.4496L47.1314 79.239C47.436 79.2234 47.7294 79.1182 47.9751 78.9365C48.2209 78.7547 48.4082 78.5045 48.5138 78.2167L50.0092 74.283ZM80.78 74.283L82.2571 78.2167C82.3625 78.504 82.5494 78.754 82.7945 78.9357C83.0397 79.1173 83.3324 79.2228 83.6365 79.239L87.8174 79.4496L84.5581 82.0711C84.3222 82.2636 84.1474 82.5213 84.0552 82.8125C83.963 83.1036 83.9575 83.4156 84.0393 83.7098L85.1319 87.7778L81.6254 85.4646C81.3718 85.2978 81.0754 85.209 80.7724 85.209C80.4694 85.209 80.173 85.2978 79.9194 85.4646L76.4099 87.7778L77.5208 83.7098C77.6009 83.4141 77.593 83.1012 77.498 82.8099C77.4031 82.5186 77.2253 82.2617 76.9867 82.0711L73.7274 79.4496L77.9053 79.239C78.2094 79.2228 78.5021 79.1173 78.7473 78.9357C78.9924 78.754 79.1793 78.504 79.2847 78.2167L80.78 74.283Z" fill="#DE1B41"/>
</svg>
