<svg width="63" height="63" viewBox="0 0 63 63" fill="none" xmlns="http://www.w3.org/2000/svg">
<path d="M13.0195 19.3325C13.0195 9.12644 21.2939 0.852051 31.5 0.852051C41.7061 0.852051 49.9805 9.12644 49.9805 19.3325C49.9805 34.12 37.1016 37.6448 32.6712 54.1795L31.5 58.5496L30.3288 54.1795C25.8984 37.6448 13.0195 34.12 13.0195 19.3325ZM23.4622 59.7208H39.5378V62.1481H23.4622V59.7208ZM31.5 11.0202C36.0904 11.0202 39.8131 14.7422 39.8131 19.3325C39.8131 23.9236 36.0904 27.6456 31.5 27.6456C26.9097 27.6456 23.1869 23.9229 23.1869 19.3325C23.1869 14.7422 26.9097 11.0202 31.5 11.0202ZM31.5 13.4474C28.2498 13.4474 25.6149 16.0823 25.6149 19.3325C25.6149 22.5835 28.2498 25.2176 31.5 25.2176C34.7502 25.2176 37.3851 22.5835 37.3851 19.3325C37.3851 16.0823 34.7502 13.4474 31.5 13.4474ZM47.5532 19.3325C47.5532 10.4666 40.366 3.27931 31.5 3.27931C22.6341 3.27931 15.4468 10.4666 15.4468 19.3325C15.4468 31.881 26.272 35.955 31.5 49.8942C36.7281 35.955 47.5532 31.8803 47.5532 19.3325Z" fill="#DE1B41"/>
</svg>
