<svg width="67" height="68" viewBox="0 0 67 68" fill="none" xmlns="http://www.w3.org/2000/svg">
<path d="M33.4805 20.9084C30.0656 20.9084 26.7906 22.265 24.3759 24.6797C21.9612 27.0944 20.6046 30.3695 20.6046 33.7844C20.6046 37.1993 21.9612 40.4743 24.3759 42.889C26.7906 45.3037 30.0656 46.6603 33.4805 46.6603C36.8954 46.6603 40.1705 45.3037 42.5852 42.889C44.9999 40.4743 46.3564 37.1993 46.3564 33.7844C46.3564 30.3695 44.9999 27.0944 42.5852 24.6797C40.1705 22.265 36.8954 20.9084 33.4805 20.9084ZM33.4805 42.1465C31.262 42.1465 29.1344 41.2652 27.5656 39.6965C25.9969 38.1277 25.1156 36.0001 25.1156 33.7816C25.1156 31.5631 25.9969 29.4354 27.5656 27.8667C29.1344 26.298 31.262 25.4167 33.4805 25.4167C35.699 25.4167 37.8267 26.298 39.3954 27.8667C40.9641 29.4354 41.8454 31.5631 41.8454 33.7816C41.8454 36.0001 40.9641 38.1277 39.3954 39.6965C37.8267 41.2652 35.699 42.1465 33.4805 42.1465Z" fill="white"/>
<path d="M46.866 23.4367C48.5239 23.4367 49.8678 22.0927 49.8678 20.4349C49.8678 18.777 48.5239 17.4331 46.866 17.4331C45.2082 17.4331 43.8642 18.777 43.8642 20.4349C43.8642 22.0927 45.2082 23.4367 46.866 23.4367Z" fill="white"/>
<path d="M57.2442 17.3831C56.5995 15.7184 55.6144 14.2066 54.3519 12.9446C53.0894 11.6825 51.5773 10.698 49.9123 10.054C47.9641 9.32267 45.9058 8.92722 43.8252 8.8845C41.1437 8.76755 40.2944 8.73413 33.4944 8.73413C26.6945 8.73413 25.8229 8.73413 23.1636 8.8845C21.0846 8.92503 19.0278 9.32057 17.0821 10.054C15.4167 10.6973 13.9042 11.6815 12.6416 12.9437C11.379 14.2058 10.3941 15.7179 9.75026 17.3831C9.01876 19.3312 8.62421 21.3896 8.58352 23.4702C8.46378 26.1489 8.42758 26.9982 8.42758 33.801C8.42758 40.6009 8.42758 41.4669 8.58352 44.1318C8.62529 46.2147 9.01791 48.2697 9.75026 50.2217C10.3959 51.8862 11.3817 53.3977 12.6447 54.6597C13.9076 55.9216 15.4199 56.9063 17.0849 57.5507C19.0269 58.3114 21.0846 58.7352 23.1692 58.8038C25.8507 58.9207 26.7 58.9569 33.5 58.9569C40.3 58.9569 41.1715 58.9569 43.8308 58.8038C45.9112 58.7615 47.9693 58.367 49.9179 57.637C51.5824 56.9915 53.0941 56.0062 54.3565 54.7438C55.6189 53.4814 56.6042 51.9697 57.2497 50.3052C57.9821 48.356 58.3747 46.301 58.4165 44.2181C58.5362 41.5393 58.5724 40.69 58.5724 33.8873C58.5724 27.0846 58.5724 26.2213 58.4165 23.5565C58.3841 21.4465 57.9875 19.358 57.2442 17.3831ZM53.8525 43.9257C53.8346 45.5305 53.5417 47.1203 52.9865 48.6261C52.5684 49.709 51.9282 50.6923 51.1071 51.5128C50.2861 52.3334 49.3024 52.973 48.2193 53.3905C46.7302 53.9431 45.1573 54.2361 43.5691 54.2565C40.9237 54.3791 40.1774 54.4097 33.3942 54.4097C26.6054 54.4097 25.912 54.4097 23.2165 54.2565C21.6291 54.2371 20.0569 53.9442 18.569 53.3905C17.4822 52.9756 16.4945 52.3371 15.67 51.5164C14.8454 50.6957 14.2024 49.711 13.7823 48.6261C13.235 47.1365 12.9423 45.5654 12.9163 43.9786C12.7966 41.3333 12.7688 40.587 12.7688 33.8038C12.7688 27.0177 12.7688 26.3244 12.9163 23.6261C12.9343 22.0222 13.2272 20.4333 13.7823 18.9285C14.6316 16.7315 16.372 15.0022 18.569 14.1613C20.0577 13.6103 21.6294 13.3175 23.2165 13.2953C25.8647 13.1755 26.6081 13.1421 33.3942 13.1421C40.1802 13.1421 40.8764 13.1421 43.5691 13.2953C45.1574 13.3144 46.7306 13.6074 48.2193 14.1613C49.3023 14.5797 50.2859 15.22 51.1069 16.041C51.9278 16.8619 52.5681 17.8455 52.9865 18.9285C53.5339 20.4181 53.8266 21.9892 53.8525 23.576C53.9723 26.2241 54.0029 26.9676 54.0029 33.7536C54.0029 40.5369 54.0029 41.2665 53.8832 43.9285H53.8525V43.9257Z" fill="white"/>
</svg>
