<svg width="67" height="68" viewBox="0 0 67 68" fill="none" xmlns="http://www.w3.org/2000/svg">
<path d="M53.1308 14.0386C50.5779 11.4599 47.5371 9.41528 44.1857 8.02405C40.8344 6.63282 37.2395 5.92283 33.6109 5.93547C18.4071 5.93547 6.01564 18.3269 6.01564 33.5307C6.01564 38.4037 7.29655 43.1375 9.6913 47.3144L5.79288 61.6272L20.412 57.7845C24.4496 59.9843 28.9885 61.1538 33.6109 61.1538C48.8147 61.1538 61.2061 48.7624 61.2061 33.5586C61.2061 26.1794 58.338 19.2458 53.1308 14.0386ZM33.6109 56.4757C29.4897 56.4757 25.4521 55.3619 21.9156 53.2734L21.0803 52.7722L12.3923 55.0556L14.7036 46.5904L14.1466 45.7272C11.857 42.071 10.6412 37.8447 10.6381 33.5307C10.6381 20.8887 20.941 10.5857 33.583 10.5857C39.7091 10.5857 45.4732 12.9805 49.7893 17.3244C51.9265 19.4517 53.6201 21.9821 54.7721 24.7688C55.924 27.5555 56.5114 30.5432 56.5002 33.5586C56.5559 46.2006 46.2529 56.4757 33.6109 56.4757ZM46.1972 39.3227C45.5011 38.9885 42.1039 37.3178 41.4913 37.0671C40.8508 36.8444 40.4053 36.733 39.9319 37.4013C39.4585 38.0974 38.1498 39.6568 37.7599 40.1023C37.3701 40.5757 36.9524 40.6314 36.2562 40.2694C35.5601 39.9353 33.3324 39.1834 30.7149 36.8444C28.6543 35.0065 27.2899 32.751 26.8722 32.0549C26.4824 31.3587 26.8165 30.9967 27.1785 30.6347C27.4848 30.3284 27.8746 29.8272 28.2088 29.4374C28.5429 29.0475 28.6822 28.7412 28.9049 28.2957C29.1277 27.8223 29.0163 27.4325 28.8493 27.0983C28.6822 26.7642 27.2899 23.367 26.733 21.9747C26.176 20.6381 25.5913 20.8052 25.1736 20.7773H23.837C23.3636 20.7773 22.6396 20.9444 21.9992 21.6405C21.3866 22.3367 19.6044 24.0074 19.6044 27.4046C19.6044 30.8018 22.0827 34.0876 22.4169 34.5332C22.751 35.0066 27.2899 41.968 34.1957 44.9475C35.8386 45.6715 37.1195 46.0892 38.1219 46.3955C39.7648 46.9246 41.2685 46.841 42.4659 46.674C43.8025 46.479 46.5592 45.0032 47.1161 43.3882C47.7009 41.7731 47.7009 40.4086 47.506 40.1023C47.3111 39.796 46.8934 39.6568 46.1972 39.3227Z" fill="white"/>
</svg>
