<svg width="30" height="31" viewBox="0 0 30 31" fill="none" xmlns="http://www.w3.org/2000/svg">
<path d="M29.994 24.0269C29.9312 23.2127 29.4035 22.4588 28.4678 21.8442C26.8398 20.7749 25.1454 19.7599 23.5073 18.7798L23.3068 18.6592C21.7327 17.7159 20.3022 17.9626 18.9344 19.4143C18.8889 19.4615 18.8399 19.5053 18.7879 19.5451C18.7734 19.5551 18.7594 19.5657 18.746 19.5771C18.2961 19.9058 17.5536 20.1235 17.2945 20.0216C14.3993 18.8793 12.2813 16.7365 10.9986 13.6533C10.8945 13.4024 11.0267 12.7221 11.1781 12.5641C13.9207 10.6269 12.9257 8.29771 11.9385 6.71394C11.7139 6.35448 11.491 5.99643 11.2696 5.63979C10.6498 4.63682 10.0054 3.60007 9.35086 2.59106C8.71965 1.61764 7.99212 1.08328 7.1886 0.999448C6.40722 0.918631 5.62404 1.27205 4.85463 2.04947C4.32334 2.58744 3.81777 3.15919 3.32896 3.70863C2.87186 4.22791 2.39322 4.76468 1.9056 5.26224C-0.151955 7.36288 -0.538458 9.83383 0.72276 12.8162C2.48057 16.9705 4.84625 20.5578 7.7528 23.4799C10.6893 26.4315 14.2629 28.7872 18.3732 30.4826H18.3768L18.4037 30.494C19.2005 30.8197 20.0521 30.987 20.9118 30.9868C22.4764 30.9849 23.9918 30.436 25.1998 29.4338C26.4198 28.4236 27.7205 27.3331 28.9596 26.2095C29.8887 25.3676 30.0347 24.557 29.994 24.0269ZM7.06655 2.19904C7.59843 2.25392 8.05793 2.80215 8.3493 3.25087C8.99666 4.24962 9.63625 5.28094 10.2549 6.27909C10.4775 6.63734 10.7 6.99559 10.9226 7.35384C11.9553 9.00998 12.0414 10.0817 11.1356 11.0286L5.73712 2.86668C6.22234 2.38359 6.67167 2.15863 7.06655 2.19904ZM24.44 28.5032C23.6729 29.1423 22.7489 29.5609 21.7654 29.7146C20.7819 29.8683 19.7755 29.7515 18.8525 29.3765L18.8297 29.3674H18.8261C10.9489 26.1173 5.22797 20.3901 1.82363 12.3428C0.746693 9.79282 1.03268 7.8707 2.75698 6.11022C3.26554 5.59094 3.75136 5.04271 4.22162 4.51258C4.4412 4.2647 4.66676 4.0126 4.89172 3.7623L10.231 11.8313C9.78522 12.42 9.64821 13.5201 9.8983 14.1183C10.584 15.7679 11.5095 17.1942 12.6505 18.3618C13.8435 19.5794 15.2797 20.5273 16.8637 21.1428C17.4889 21.3895 18.4133 21.1693 19.1235 20.764L27.118 26.2427C26.2176 27.0237 25.3081 27.7837 24.44 28.5032ZM28.159 25.3139C28.1202 25.3495 28.0801 25.3845 28.0394 25.4195L20.082 19.9655C20.9495 19.1712 21.7076 19.1025 22.6954 19.6941L22.8958 19.8147C24.5238 20.79 26.2068 21.7996 27.815 22.8544C28.4181 23.2501 28.7687 23.6988 28.801 24.121C28.8303 24.4991 28.6143 24.9008 28.159 25.3139Z" fill="#DE1B41"/>
<path d="M17.1003 9.62615C17.8973 9.6271 18.6614 9.94673 19.2249 10.5149C19.7884 11.0831 20.1053 11.8534 20.1061 12.6568C20.1061 12.8167 20.1692 12.9701 20.2814 13.0833C20.3936 13.1964 20.5458 13.2599 20.7044 13.2599C20.8631 13.2599 21.0153 13.1964 21.1275 13.0833C21.2397 12.9701 21.3027 12.8167 21.3027 12.6568C21.3015 11.5336 20.8583 10.4568 20.0705 9.66249C19.2827 8.86822 18.2145 8.42136 17.1003 8.41992C16.9416 8.41992 16.7894 8.48346 16.6772 8.59657C16.565 8.70967 16.502 8.86308 16.502 9.02303C16.502 9.18299 16.565 9.33639 16.6772 9.4495C16.7894 9.5626 16.9416 9.62615 17.1003 9.62615Z" fill="#DE1B41"/>
<path d="M17.1003 5.99358C18.8528 5.99549 20.5331 6.6981 21.7724 7.94726C23.0117 9.19641 23.7088 10.8901 23.7109 12.6568C23.7109 12.8167 23.7739 12.9701 23.8861 13.0832C23.9983 13.1963 24.1505 13.2599 24.3092 13.2599C24.4679 13.2599 24.6201 13.1963 24.7323 13.0832C24.8445 12.9701 24.9075 12.8167 24.9075 12.6568C24.9075 8.31737 21.4051 4.78735 17.1003 4.78735C16.9416 4.78735 16.7894 4.8509 16.6772 4.964C16.565 5.07711 16.502 5.23051 16.502 5.39047C16.502 5.55042 16.565 5.70382 16.6772 5.81693C16.7894 5.93004 16.9416 5.99358 17.1003 5.99358Z" fill="#DE1B41"/>
<path d="M17.1003 2.3593C22.7327 2.3593 27.3151 6.97854 27.3151 12.6568C27.3151 12.8168 27.3781 12.9702 27.4903 13.0833C27.6025 13.1964 27.7547 13.26 27.9134 13.26C28.0721 13.26 28.2242 13.1964 28.3364 13.0833C28.4486 12.9702 28.5117 12.8168 28.5117 12.6568C28.5117 6.31391 23.3938 1.15308 17.1003 1.15308C16.9416 1.15308 16.7894 1.21662 16.6772 1.32972C16.565 1.44283 16.502 1.59623 16.502 1.75619C16.502 1.91614 16.565 2.06955 16.6772 2.18265C16.7894 2.29576 16.9416 2.3593 17.1003 2.3593Z" fill="#DE1B41"/>
</svg>
