<svg width="30" height="30" viewBox="0 0 30 30" fill="none" xmlns="http://www.w3.org/2000/svg">
<path d="M9.36858 6.87429C9.36858 6.45276 9.71022 6.11052 10.1321 6.11052H16.0326C16.4544 6.11052 16.796 6.45246 16.796 6.87429C16.796 7.29613 16.4544 7.63807 16.0326 7.63807H10.1321C9.71022 7.63807 9.36858 7.29613 9.36858 6.87429ZM10.0362 11.3694H19.9721C20.3939 11.3694 20.7355 11.0275 20.7355 10.6056C20.7355 10.1838 20.3939 9.84184 19.9721 9.84184H10.0362C9.6144 9.84184 9.27277 10.1838 9.27277 10.6056C9.27277 11.0275 9.6144 11.3694 10.0362 11.3694ZM10.0362 15.1007H19.9721C20.3939 15.1007 20.7355 14.7588 20.7355 14.3369C20.7355 13.9151 20.3939 13.5732 19.9721 13.5732H10.0362C9.6144 13.5732 9.27277 13.9151 9.27277 14.3369C9.27277 14.7588 9.6144 15.1007 10.0362 15.1007ZM29.6388 12.4626V29.0712C29.6388 29.4931 29.2972 29.8347 28.8753 29.8347H1.12471C0.702869 29.8347 0.361237 29.4931 0.361237 29.0712V12.4626C0.361237 12.2357 0.461951 12.0205 0.636441 11.8754L5.29011 8.00725V3.75062C5.29011 3.32909 5.63175 2.98684 6.05358 2.98684H11.3094L14.5108 0.317763C14.7949 0.0814361 15.207 0.0817423 15.4898 0.318681L18.6787 2.98684H20.1196C20.3253 2.98684 20.5222 3.0698 20.6657 3.21674C23.2176 5.82919 24.4935 7.1397 24.4935 7.1397C24.6325 7.28236 24.7099 7.47338 24.7099 7.67236V8.00144L29.3636 11.8751C29.5381 12.0208 29.6388 12.2357 29.6388 12.4626ZM1.88818 13.8095V26.9406L9.1246 18.1405L1.88818 13.8095ZM2.74103 28.3078H27.259L19.5505 18.9337L15.3922 21.4225C15.2712 21.4944 15.1356 21.5308 15 21.5308C14.8644 21.5308 14.7285 21.495 14.6079 21.4225L10.4495 18.9337L2.74103 28.3078ZM28.1119 26.9406V13.8095L20.8754 18.1405L28.1119 26.9406ZM20.8834 6.82225H22.0509C21.7228 6.48582 21.3315 6.08511 20.8834 5.62562V6.82225ZM24.7102 9.98878V14.0654L27.5593 12.3603L24.7102 9.98878ZM13.6944 2.98684H16.2989L14.9991 1.89919L13.6944 2.98684ZM6.81736 4.5144V14.9798L15 19.8772L23.183 14.9795V8.3495H20.1199C19.6981 8.3495 19.3564 8.00756 19.3564 7.58572V4.5144H6.81736ZM5.29011 9.99307L2.44164 12.3606L5.29011 14.0654V9.99307Z" fill="#DE1B41"/>
</svg>
