<svg width="71" height="71" viewBox="0 0 71 71" fill="none" xmlns="http://www.w3.org/2000/svg">
<path d="M31.6392 26.4383V30.5119H28.6572V35.4908H31.6392V50.2913H37.7689V35.4908H41.881C41.881 35.4908 42.2685 33.1034 42.4549 30.4912H37.7926V27.0891C37.7926 26.5773 38.4611 25.894 39.1238 25.894H42.4608V20.708H37.9198C31.4884 20.708 31.6392 25.6928 31.6392 26.4383Z" fill="white"/>
<path d="M35.5003 59.1665C41.7771 59.1665 47.7968 56.6731 52.2352 52.2347C56.6735 47.7963 59.167 41.7766 59.167 35.4998C59.167 29.223 56.6735 23.2033 52.2352 18.765C47.7968 14.3266 41.7771 11.8332 35.5003 11.8332C29.2235 11.8332 23.2038 14.3266 18.7655 18.765C14.3271 23.2033 11.8337 29.223 11.8337 35.4998C11.8337 41.7766 14.3271 47.7963 18.7655 52.2347C23.2038 56.6731 29.2235 59.1665 35.5003 59.1665ZM35.5003 65.0832C19.1615 65.0832 5.91699 51.8387 5.91699 35.4998C5.91699 19.161 19.1615 5.9165 35.5003 5.9165C51.8392 5.9165 65.0837 19.161 65.0837 35.4998C65.0837 51.8387 51.8392 65.0832 35.5003 65.0832Z" fill="white"/>
</svg>
