<svg width="100" height="100" viewBox="0 0 100 100" fill="none" xmlns="http://www.w3.org/2000/svg">
<path d="M74.7234 24.3235C76.7828 21.3376 81.2141 13.8204 77.8828 8.53915C76.2766 5.99384 73.5187 5.12665 72.3422 4.7579C68.8172 3.64697 62.9938 3.6079 55.2797 9.71103C52.6344 11.8032 47.7922 17.1829 46.9937 23.436H42.1875C41.7891 23.436 41.4047 23.5892 41.1141 23.861L27.0516 37.1251C26.7391 37.4235 26.5625 37.8345 26.5625 38.2642V95.3126C26.5625 96.1767 27.2609 96.8751 28.125 96.8751H71.875C72.7391 96.8751 73.4375 96.1767 73.4375 95.3126V38.2642C73.4375 37.8345 73.2609 37.4235 72.9484 37.1267L67.2125 31.7157C69.9453 29.8563 72.5656 27.4532 74.7234 24.3235ZM70.3125 38.9392V93.7501H29.6875V38.9392L42.8078 26.5626H57.1906L62.025 31.122C59.8281 32.2173 57.6672 32.9767 55.7437 33.4829C54.7891 31.2532 52.575 29.6876 50 29.6876C46.5531 29.6876 43.75 32.4907 43.75 35.9376C43.75 39.3845 46.5531 42.1876 50 42.1876C53.2156 42.1876 55.8391 39.7407 56.1813 36.6157C58.6875 35.9907 61.5703 34.9704 64.45 33.4095L70.3125 38.9392ZM52.8156 37.2688C52.3141 38.3251 51.2453 39.0626 50 39.0626C48.2766 39.0626 46.875 37.661 46.875 35.9376C46.875 34.2142 48.2766 32.8126 50 32.8126C51.0562 32.8126 51.9875 33.3423 52.5547 34.1485C51.5078 34.3048 50.625 34.3751 50 34.3751V37.5001C50.7188 37.5001 51.6906 37.4267 52.8156 37.2688ZM64.875 29.5126L58.8859 23.8626C58.5953 23.5907 58.2109 23.4376 57.8125 23.4376H50.1547C51.0062 18.1532 55.4219 13.586 57.2203 12.161C62.5484 7.9454 67.3203 6.45634 71.4062 7.74072C72.4 8.05165 74.2453 8.6329 75.2406 10.2079C77.1516 13.236 74.8969 18.5688 72.15 22.5485C70.0906 25.5345 67.5328 27.8017 64.875 29.5126Z" fill="#DE1B41"/>
<path d="M49.9997 48.4375C42.245 48.4375 35.9372 55.0969 35.9372 63.2812C35.9372 66.6672 37.0278 69.7812 38.8418 72.2812L34.4544 85.4437C34.2669 86.0047 34.4137 86.625 34.8309 87.0422C35.1293 87.3391 35.5294 87.5 35.9372 87.5C36.1012 87.5 36.27 87.4734 36.4309 87.4188L40.5028 86.0625L43.0497 87.3344C43.4559 87.5375 43.9278 87.5547 44.3465 87.3797C44.7653 87.2047 45.0887 86.8594 45.2294 86.4313L48.0512 77.9656C48.6903 78.0594 49.3372 78.125 49.9997 78.125C50.6622 78.125 51.309 78.0594 51.9465 77.9656L54.7684 86.4313C54.9106 86.8594 55.234 87.2062 55.6512 87.3797C56.07 87.5516 56.5403 87.5359 56.9481 87.3344L59.495 86.0625L63.5668 87.4188C63.7293 87.4734 63.8981 87.5 64.0622 87.5C64.47 87.5 64.87 87.3391 65.1668 87.0422C65.5856 86.6234 65.7309 86.0047 65.5434 85.4437L61.1559 72.2812C62.9715 69.7812 64.0622 66.6672 64.0622 63.2812C64.0622 55.0969 57.7544 48.4375 49.9997 48.4375ZM45.0294 77.1563L42.8372 83.7344L41.3231 82.9781C41.1044 82.8672 40.8653 82.8125 40.6247 82.8125C40.459 82.8125 40.2918 82.8391 40.1309 82.8937L38.4075 83.4672L41.2622 74.9016C41.3012 74.9344 41.345 74.9562 41.384 74.9891C41.8856 75.4 42.4122 75.7766 42.9637 76.1156C43.0122 76.1453 43.059 76.1781 43.1075 76.2078C43.7028 76.5625 44.3262 76.8672 44.9715 77.1281C44.9918 77.1359 45.009 77.1484 45.0294 77.1563ZM47.4106 74.6547C47.4075 74.6547 47.4059 74.6516 47.4028 74.6516C46.334 74.3719 45.3278 73.9234 44.3997 73.3297C44.359 73.3031 44.3168 73.2766 44.2762 73.2484C43.3747 72.6531 42.5528 71.9172 41.8356 71.0531C40.1168 68.9812 39.0622 66.2641 39.0622 63.2812C39.0622 56.8187 43.97 51.5625 49.9997 51.5625C56.0294 51.5625 60.9372 56.8187 60.9372 63.2812C60.9372 66.2641 59.8825 68.9812 58.1637 71.0516C57.4465 71.9172 56.6247 72.6531 55.7231 73.2484C55.6825 73.275 55.6418 73.3016 55.5997 73.3281C54.6731 73.9219 53.6653 74.3703 52.5965 74.65C52.5934 74.65 52.5919 74.6531 52.5887 74.6531C51.7575 74.8719 50.8934 75 49.9997 75C49.1059 75 48.2419 74.8719 47.4106 74.6547ZM59.8684 82.8937C59.4731 82.7594 59.0481 82.7922 58.6747 82.9781L57.1606 83.7344L54.9684 77.1563C54.9887 77.1484 55.0075 77.1359 55.0262 77.1281C55.6715 76.8656 56.295 76.5625 56.8903 76.2062C56.9387 76.1766 56.9856 76.1438 57.034 76.1141C57.5856 75.7766 58.1122 75.4 58.6137 74.9875C58.6528 74.9563 58.6965 74.9328 58.7356 74.9L61.5903 83.4656L59.8684 82.8937Z" fill="#DE1B41"/>
<path d="M51.5625 70.025C53.3766 69.3781 54.6875 67.6594 54.6875 65.625C54.6875 65.1344 54.4562 64.6703 54.0625 64.375L48.5891 60.2687C48.8391 59.7406 49.3781 59.375 50 59.375C50.8625 59.375 51.5625 60.075 51.5625 60.9375H54.6875C54.6875 58.9031 53.3766 57.1844 51.5625 56.5375V54.6875H48.4375V56.5375C46.6234 57.1844 45.3125 58.9031 45.3125 60.9375C45.3125 61.4281 45.5437 61.8922 45.9375 62.1875L51.4109 66.2938C51.1609 66.8219 50.6219 67.1875 50 67.1875C49.1375 67.1875 48.4375 66.4875 48.4375 65.625H45.3125C45.3125 67.6594 46.6234 69.3781 48.4375 70.025V71.875H51.5625V70.025Z" fill="#DE1B41"/>
<path d="M26.5625 7.8125H23.4375V12.5H26.5625V7.8125Z" fill="#DE1B41"/>
<path d="M35.9375 17.1875H31.25V20.3125H35.9375V17.1875Z" fill="#DE1B41"/>
<path d="M26.5625 25H23.4375V29.6875H26.5625V25Z" fill="#DE1B41"/>
<path d="M18.75 17.1875H14.0625V20.3125H18.75V17.1875Z" fill="#DE1B41"/>
<path d="M31.7075 9.83302L28.583 12.9575L30.7927 15.1672L33.9172 12.0427L31.7075 9.83302Z" fill="#DE1B41"/>
<path d="M30.7927 22.3328L28.583 24.5425L31.7075 27.667L33.9172 25.4573L30.7927 22.3328Z" fill="#DE1B41"/>
<path d="M19.2075 22.333L16.083 25.4575L18.2927 27.6672L21.4172 24.5427L19.2075 22.333Z" fill="#DE1B41"/>
<path d="M18.2927 9.83279L16.083 12.0425L19.2075 15.167L21.4172 12.9573L18.2927 9.83279Z" fill="#DE1B41"/>
<path d="M18.75 43.75C16.1656 43.75 14.0625 45.8531 14.0625 48.4375C14.0625 51.0219 16.1656 53.125 18.75 53.125C21.3344 53.125 23.4375 51.0219 23.4375 48.4375C23.4375 45.8531 21.3344 43.75 18.75 43.75ZM18.75 50C17.8875 50 17.1875 49.3 17.1875 48.4375C17.1875 47.575 17.8875 46.875 18.75 46.875C19.6125 46.875 20.3125 47.575 20.3125 48.4375C20.3125 49.3 19.6125 50 18.75 50Z" fill="#DE1B41"/>
<path d="M6.25 64.0625H3.125V67.1875H6.25V64.0625Z" fill="#DE1B41"/>
<path d="M9.375 60.9375H6.25V64.0625H9.375V60.9375Z" fill="#DE1B41"/>
<path d="M12.5 64.0625H9.375V67.1875H12.5V64.0625Z" fill="#DE1B41"/>
<path d="M9.375 67.1875H6.25V70.3125H9.375V67.1875Z" fill="#DE1B41"/>
<path d="M15.625 78.125C13.0406 78.125 10.9375 80.2281 10.9375 82.8125C10.9375 85.3969 13.0406 87.5 15.625 87.5C18.2094 87.5 20.3125 85.3969 20.3125 82.8125C20.3125 80.2281 18.2094 78.125 15.625 78.125ZM15.625 84.375C14.7625 84.375 14.0625 83.675 14.0625 82.8125C14.0625 81.95 14.7625 81.25 15.625 81.25C16.4875 81.25 17.1875 81.95 17.1875 82.8125C17.1875 83.675 16.4875 84.375 15.625 84.375Z" fill="#DE1B41"/>
<path d="M82.8125 78.125C80.2281 78.125 78.125 80.2281 78.125 82.8125C78.125 85.3969 80.2281 87.5 82.8125 87.5C85.3969 87.5 87.5 85.3969 87.5 82.8125C87.5 80.2281 85.3969 78.125 82.8125 78.125ZM82.8125 84.375C81.95 84.375 81.25 83.675 81.25 82.8125C81.25 81.95 81.95 81.25 82.8125 81.25C83.675 81.25 84.375 81.95 84.375 82.8125C84.375 83.675 83.675 84.375 82.8125 84.375Z" fill="#DE1B41"/>
<path d="M90.625 65.625H87.5V68.75H90.625V65.625Z" fill="#DE1B41"/>
<path d="M93.75 62.5H90.625V65.625H93.75V62.5Z" fill="#DE1B41"/>
<path d="M96.875 65.625H93.75V68.75H96.875V65.625Z" fill="#DE1B41"/>
<path d="M93.75 68.75H90.625V71.875H93.75V68.75Z" fill="#DE1B41"/>
<path d="M85.9375 48.4375C85.9375 45.8531 83.8344 43.75 81.25 43.75C78.6656 43.75 76.5625 45.8531 76.5625 48.4375C76.5625 51.0219 78.6656 53.125 81.25 53.125C83.8344 53.125 85.9375 51.0219 85.9375 48.4375ZM79.6875 48.4375C79.6875 47.575 80.3875 46.875 81.25 46.875C82.1125 46.875 82.8125 47.575 82.8125 48.4375C82.8125 49.3 82.1125 50 81.25 50C80.3875 50 79.6875 49.3 79.6875 48.4375Z" fill="#DE1B41"/>
<path d="M90.625 28.125H87.5V31.25H90.625V28.125Z" fill="#DE1B41"/>
<path d="M93.75 25H90.625V28.125H93.75V25Z" fill="#DE1B41"/>
<path d="M96.875 28.125H93.75V31.25H96.875V28.125Z" fill="#DE1B41"/>
<path d="M93.75 31.25H90.625V34.375H93.75V31.25Z" fill="#DE1B41"/>
</svg>
